# xmcd
#
# Track frame offsets: 
#        150
#        3567
#        16738
#        21058
#        26661
#        39828
#        52202
#        56665
#        61019
#        71366
#        86751
#        91187
#        94881
#        101514
#        117156
#        121682
#        126289
#        133099
#        147321
#        152219
#        157541
#        170738
#        183644
#        188290
#        195969
#        207283
#        218243
#        223666
#        229185
#        233270
#        245583
#        250749
#        255059
#        266402
#        278271
#        283143
#        288948
#        293150
#        307776
#        313040
#        321146
#
# Disc length: 4410 seconds
#
# Revision: 1
# Processed by: cddbd v1.4PL0 Copyright (c) Steve Scherf et al.
# Submitted via: ExactAudioCopy v0.95a3
#
DISCID=2c113829
DTITLE=Langenscheidt Business Line - Business English: Smal Talk
DYEAR=2002
DGENRE=Sprachen
TTITLE0=Einleitung Meetings
TTITLE1=Dialogue 1: On arrival
TTITLE2=D1 Exercise 1
TTITLE3=D2 Exercise 2
TTITLE4=D3 Exercise 3
TTITLE5=Dialogue 2: Meeting the MD
TTITLE6=D2 Exercise 1
TTITLE7=D2 Exercise 2
TTITLE8=D2 Exercise 3
TTITLE9=Dialogue 3: Getting acquainted
TTITLE10=D3 Exercise 1
TTITLE11=D3 Exercise 2
TTITLE12=D3 Exercise 3
TTITLE13=Dialogue 4: At the boss's home
TTITLE14=D4 Exercise 1
TTITLE15=D4 Exercise 2
TTITLE16=D4 Exercise 3
TTITLE17=Dialogue 5: Meeting in the lunch break
TTITLE18=D5 Exercise 1
TTITLE19=D5 Exercise 2
TTITLE20=D5 Exercise 3
TTITLE21=Dialogue 6: At the local pub
TTITLE22=D6 Exercise 1
TTITLE23=D6 Exercise 2
TTITLE24=D6 Exercise 3
TTITLE25=Dialogue 7: Getting there
TTITLE26=D7 Exercise 1
TTITLE27=D7 Exercise 2
TTITLE28=D7 Exercise 3
TTITLE29=Dialogue 8: Eating out
TTITLE30=D8 Exercise 1
TTITLE31=D8 Exercise 2
TTITLE32=D8 Exercise 3
TTITLE33=Dialogue 9: At the theatre
TTITLE34=D9 Exercise 1
TTITLE35=D9 Exercise 2
TTITLE36=D9 Exercise 3
TTITLE37=Dialogue 10: Saying goodbye
TTITLE38=D10 Exercise 1
TTITLE39=D10 Exercise 2
TTITLE40=D10 Exercise 3
EXTD=
EXTT0=
EXTT1=
EXTT2=
EXTT3=
EXTT4=
EXTT5=
EXTT6=
EXTT7=
EXTT8=
EXTT9=
EXTT10=
EXTT11=
EXTT12=
EXTT13=
EXTT14=
EXTT15=
EXTT16=
EXTT17=
EXTT18=
EXTT19=
EXTT20=
EXTT21=
EXTT22=
EXTT23=
EXTT24=
EXTT25=
EXTT26=
EXTT27=
EXTT28=
EXTT29=
EXTT30=
EXTT31=
EXTT32=
EXTT33=
EXTT34=
EXTT35=
EXTT36=
EXTT37=
EXTT38=
EXTT39=
EXTT40=
PLAYORDER=
